<?xml version="1.0" encoding="utf-8"?>
<!-- Generator: Adobe Illustrator 21.0.0, SVG Export Plug-In . SVG Version: 6.00 Build 0)  -->
<svg version="1.1" id="Layer_1" xmlns="http://www.w3.org/2000/svg" xmlns:xlink="http://www.w3.org/1999/xlink" x="0px" y="0px"
	 viewBox="0 0 200 200" style="enable-background:new 0 0 200 200;" xml:space="preserve">
<style type="text/css">
	.st0{fill:#FFFFFF;}
	.st1{fill:#D50028;}
</style>
<path class="st0" d="M100,14.3c-37.5,0-67.9,30.3-67.9,68.1c0,47.1,48.6,90.3,63.6,101.7c2.5,2.1,6.1,2.1,8.9,0
	c15-11.8,63.2-54.6,63.2-101.7C167.9,44.6,137.5,14.3,100,14.3z M100,110.6c-15.7,0-28.6-12.8-28.6-28.5S84.3,53.5,100,53.5
	s28.6,12.8,28.6,28.5S115.7,110.6,100,110.6z"/>
<path class="st1" d="M100,14.3c-37.5,0-67.9,30.3-67.9,68.1c0,47.1,48.6,90.3,63.6,101.7c2.5,2.1,6.1,2.1,8.9,0
	c15-11.8,63.2-54.6,63.2-101.7C167.9,44.6,137.5,14.3,100,14.3z M100,110.6c-15.7,0-28.6-12.8-28.6-28.5S84.3,53.5,100,53.5
	s28.6,12.8,28.6,28.5S115.7,110.6,100,110.6z"/>
</svg>
