<?xml version="1.0" standalone="no"?><!DOCTYPE svg PUBLIC "-//W3C//DTD SVG 1.1//EN" "http://www.w3.org/Graphics/SVG/1.1/DTD/svg11.dtd"><svg t="1587662639385" class="icon" viewBox="0 0 1024 1024" version="1.1" xmlns="http://www.w3.org/2000/svg" p-id="6845" xmlns:xlink="http://www.w3.org/1999/xlink" width="200" height="200"><defs><style type="text/css"></style></defs><path d="M229.518 1024h122.206L158.896 900.414 0.396 807.796C7.318 928.18 107.432 1024 229.518 1024z" fill="#FDE494" p-id="6846"></path><path d="M670.896 953.38l-138.012-35.31H229.518c-68.144 0-123.586-55.442-123.586-123.586v-67.752l-52.966-56.84L0 679.256v115.226c0 4.472 0.144 8.908 0.396 13.314L351.724 1024h417.534l-98.362-70.62z" fill="#FEA150" p-id="6847"></path><path d="M883.31 880.28c-22.488 23.274-53.986 37.788-88.828 37.788H532.884L769.258 1024h25.224c82.404 0 154.792-43.658 195.28-109.054l-54.044-32.188-52.408-2.478z" fill="#FF5D4A" p-id="6848"></path><path d="M918.068 652.028v142.456c0 33.304-13.266 63.55-34.758 85.798l106.454 34.666c21.692-35.04 34.236-76.312 34.236-120.466v-125.61l-54.792-30.782-51.14 13.938z" fill="#E45261" p-id="6849"></path><path d="M1024 298.38l-56.406-13.432-49.526 29.652v337.428L1024 668.872z" fill="#FF4D95" p-id="6850"></path><path d="M1024 229.518c0-115.266-85.416-210.946-196.272-227.1L688.86 60.202l-70.366 45.73h175.988c68.144 0 123.586 55.442 123.586 123.586V314.6L1024 298.38v-68.862z" fill="#CB319C" p-id="6851"></path><path d="M635.464 0L504.1 49.272l-103.61 56.66h218.004L827.728 2.416A230.44 230.44 0 0 0 794.482 0H635.464z" fill="#8A3293" p-id="6852"></path><path d="M512 812.138c36.716 0 71.908-6.64 104.452-18.76l-172.04-78.094-182.356-37.314C315.892 758.78 407.826 812.138 512 812.138z" fill="#FF5D4A" p-id="6853"></path><path d="M658.306 610.716C626.54 657.646 572.81 688.552 512 688.552c-80.546 0-148.616-54.236-169.734-128.092l-47.364-29.602-81.694 9.076a298.268 298.268 0 0 0 48.85 138.034l354.396 115.41c76.606-28.528 138.474-87.514 170.916-162.136l-63.506-32.17-65.558 11.644z" fill="#E45261" p-id="6854"></path><path d="M335.448 512c0-43.756 16.036-83.814 42.494-114.692l-75.316-10.536-76.5 33.784A298.956 298.956 0 0 0 211.862 512c0 9.424 0.488 18.73 1.342 27.932l129.06 20.524A175.948 175.948 0 0 1 335.448 512z m476.69 0c0-64.276-20.318-123.892-54.856-172.78l-74.794-10.616-76.836 33.834c49.746 31.262 82.9 86.596 82.9 149.562 0 36.54-11.16 70.522-30.246 98.716l129.062 20.524A298.324 298.324 0 0 0 812.138 512z" fill="#FF4D95" p-id="6855"></path><path d="M512 335.448c34.388 0 66.484 9.918 93.652 26.99l151.63-23.218C702.89 262.234 613.222 211.862 512 211.862c-133.62 0-247.108 87.778-285.874 208.69l151.816-23.248c32.404-37.82 80.464-61.856 134.058-61.856z m282.482-35.31c38.94 0 70.62-31.68 70.62-70.62s-31.68-70.62-70.62-70.62c-38.94 0-70.62 31.68-70.62 70.62s31.68 70.62 70.62 70.62z" fill="#CB319C" p-id="6856"></path><path d="M105.932 627.128L54.94 601.694 0 592.632v86.626l105.932 47.474z" fill="#FF5D4A" p-id="6857"></path><path d="M0 506.028v86.604l105.932 34.496V522.874l-55.04-19.788z" fill="#E45261" p-id="6858"></path><path d="M105.932 438.958l-54.434-0.492L0 455.18v50.848l105.932 16.846z" fill="#FF4D95" p-id="6859"></path><path d="M105.932 359.514l-56.11 5.692L0 411.924v43.256l105.932-16.222z" fill="#CB319C" p-id="6860"></path><path d="M0 411.924l105.932-52.41v-120.79L43.8 244.666 0 286.482z" fill="#8A3293" p-id="6861"></path><path d="M410.118 0L168.412 92.962 2.774 193.856A230.44 230.44 0 0 0 0 229.518v56.964l105.932-47.756v-9.21c0-68.144 55.442-123.586 123.586-123.586h170.974L635.464 0H410.118z" fill="#523494" p-id="6862"></path><path d="M229.518 0C115.09 0 19.956 84.176 2.774 193.856L410.118 0h-180.6z" fill="#2D2D87" p-id="6863"></path></svg>