<svg width="1202" height="14" viewBox="0 0 1202 14" fill="none" xmlns="http://www.w3.org/2000/svg">
<path d="M1200.33 1.16667L1190.34 10.6667C1188.34 12.5 1185.01 12.5 1183.01 10.6667L1176.68 4.66667C1174.68 2.83333 1171.35 2.83333 1169.36 4.66667L1163.03 10.6667C1161.03 12.5 1157.7 12.5 1155.7 10.6667L1149.37 4.66667C1147.37 2.83333 1144.04 2.83333 1142.04 4.66667L1135.71 10.6667C1133.71 12.5 1130.38 12.5 1128.38 10.6667L1122.05 4.66667C1120.06 2.83333 1116.73 2.83333 1114.73 4.66667L1108.4 10.6667C1106.4 12.5 1103.07 12.5 1101.07 10.6667L1094.91 4.5C1092.91 2.66667 1089.58 2.66667 1087.58 4.5L1081.25 10.5C1079.25 12.3333 1075.92 12.3333 1073.92 10.5L1067.59 4.5C1065.59 2.66667 1062.26 2.66667 1060.26 4.5L1053.94 10.5C1051.94 12.3333 1048.61 12.3333 1046.61 10.5L1040.28 4.5C1038.28 2.66667 1034.95 2.66667 1032.95 4.5L1026.62 10.5C1024.62 12.3333 1021.29 12.3333 1019.29 10.5L1012.96 4.5C1010.97 2.66667 1007.63 2.66667 1005.64 4.5L999.307 10.5C997.308 12.3333 993.977 12.3333 991.978 10.5L985.65 4.5C983.651 2.66667 980.32 2.66667 978.321 4.5L971.992 10.5C969.994 12.3333 966.663 12.3333 964.664 10.5L958.335 4.5C956.337 2.66667 953.005 2.66667 951.007 4.5L945.011 10.5C943.012 12.3333 939.681 12.3333 937.683 10.5L931.354 4.5C929.355 2.66667 926.024 2.66667 924.026 4.5L917.697 10.5C915.698 12.3333 912.367 12.3333 910.368 10.5L904.04 4.5C902.041 2.66667 898.71 2.66667 896.711 4.5L890.382 10.5C888.384 12.3333 885.053 12.3333 883.054 10.5L876.725 4.5C874.727 2.66667 871.395 2.66667 869.397 4.5L863.068 10.5C861.069 12.3333 857.738 12.3333 855.74 10.5L849.411 4.5C847.412 2.66667 844.081 2.66667 842.083 4.5L835.754 10.5C833.755 12.3333 830.424 12.3333 828.425 10.5L822.096 4.5C820.098 2.66667 816.767 2.66667 814.768 4.5L808.439 10.5C806.441 12.3333 803.11 12.3333 801.111 10.5L795.115 4.5C793.117 2.66667 789.786 2.66667 787.787 4.5L781.458 10.5C779.459 12.3333 776.128 12.3333 774.13 10.5L767.801 4.5C765.802 2.66667 762.471 2.66667 760.473 4.5L754.144 10.5C752.145 12.3333 748.814 12.3333 746.815 10.5L740.486 4.5C738.488 2.66667 735.157 2.66667 733.158 4.5L726.829 10.5C724.831 12.3333 721.5 12.3333 719.501 10.5L713.172 4.5C711.173 2.66667 707.842 2.66667 705.844 4.5L699.515 10.5C697.516 12.3333 694.185 12.3333 692.187 10.5L685.858 4.5C683.859 2.66667 680.528 2.66667 678.529 4.5L672.201 10.5C670.202 12.3333 666.871 12.3333 664.872 10.5L658.543 4.5C656.545 2.66667 653.214 2.66667 651.215 4.5L645.219 10.5C643.221 12.3333 639.89 12.3333 637.891 10.5L631.562 4.5C629.563 2.66667 626.232 2.66667 624.234 4.5L617.905 10.5C615.906 12.3333 612.575 12.3333 610.577 10.5L604.248 4.5C602.249 2.66667 598.918 2.66667 596.919 4.5L590.591 10.5C588.592 12.3333 585.261 12.3333 583.262 10.5L576.933 4.5C574.935 2.66667 571.604 2.66667 569.605 4.5L563.276 10.5C561.278 12.3333 557.947 12.3333 555.948 10.5L549.619 4.5C547.62 2.66667 544.289 2.66667 542.291 4.5L535.962 10.5C533.963 12.3333 530.632 12.3333 528.634 10.5L522.305 4.5C520.306 2.66667 516.975 2.66667 514.976 4.5L508.647 10.5C506.649 12.3333 503.318 12.3333 501.319 10.5L495.323 4.5C493.325 2.66667 489.994 2.66667 487.995 4.5L481.666 10.5C479.668 12.3333 476.337 12.3333 474.338 10.5L468.009 4.5C466.01 2.66667 462.679 2.66667 460.681 4.5L454.352 10.5C452.353 12.3333 449.022 12.3333 447.024 10.5L440.695 4.5C438.696 2.66667 435.365 2.66667 433.366 4.5L427.037 10.5C425.039 12.3333 421.708 12.3333 419.709 10.5L413.38 4.5C411.382 2.66667 408.051 2.66667 406.052 4.5L399.723 10.5C397.725 12.3333 394.393 12.3333 392.395 10.5L386.066 4.5C384.067 2.66667 380.736 2.66667 378.738 4.5L372.409 10.5C370.41 12.3333 367.079 12.3333 365.081 10.5L358.752 4.5C356.753 2.66667 353.422 2.66667 351.423 4.5L345.427 10.5C343.429 12.3333 340.098 12.3333 338.099 10.5L331.77 4.5C329.772 2.66667 326.441 2.66667 324.442 4.5L318.113 10.5C316.115 12.3333 312.783 12.3333 310.785 10.5L304.456 4.5C302.457 2.66667 299.126 2.66667 297.128 4.5L290.799 10.5C288.8 12.3333 285.469 12.3333 283.471 10.5L277.142 4.5C275.143 2.66667 271.812 2.66667 269.813 4.5L263.484 10.5C261.486 12.3333 258.155 12.3333 256.156 10.5L249.827 4.5C247.829 2.66667 244.498 2.66667 242.499 4.5L236.17 10.5C234.171 12.3333 230.84 12.3333 228.842 10.5L222.513 4.5C220.514 2.66667 217.183 2.66667 215.185 4.5L208.856 10.5C206.857 12.3333 203.526 12.3333 201.527 10.5L195.532 4.5C193.533 2.66667 190.202 2.66667 188.203 4.5L181.874 10.5C179.876 12.3333 176.545 12.3333 174.546 10.5L168.217 4.5C166.219 2.66667 162.888 2.66667 160.889 4.5L154.56 10.5C152.561 12.3333 149.23 12.3333 147.232 10.5L140.903 4.5C138.904 2.66667 135.573 2.66667 133.575 4.5L127.246 10.5C125.247 12.3333 121.916 12.3333 119.917 10.5L113.588 4.5C111.59 2.66667 108.259 2.66667 106.26 4.5L99.9313 10.5C97.9327 12.3333 94.6017 12.3333 92.6031 10.5L86.2741 4.5C84.2755 2.66667 80.9445 2.66667 78.9459 4.5L72.6169 10.5C70.6183 12.3333 67.2873 12.3333 65.2887 10.5L58.9597 4.5C56.9611 2.66667 53.6301 2.66667 51.6315 4.5L45.6357 10.5C43.6371 12.3333 40.306 12.3333 38.3074 10.5L31.9785 4.5C29.9799 2.66667 26.6489 2.66667 24.6502 4.5L18.3213 10.5C16.3227 12.3333 12.9917 12.3333 10.9931 10.5L1 1" stroke="black" stroke-width="2" stroke-miterlimit="10"/>
</svg>
